<svg id="visual" viewBox="0 0 960 300" width="960" height="300" xmlns="http://www.w3.org/2000/svg" xmlns:xlink="http://www.w3.org/1999/xlink" version="1.1"><rect x="0" y="0" width="960" height="300" fill="#FF0066"></rect><g transform="translate(486.7864384612594 139.839597007338)"><path d="M65.3 -78.3C78.8 -66.5 79.8 -40.4 87.3 -13.1C94.8 14.2 108.9 42.6 102.3 63.9C95.8 85.2 68.6 99.5 41.9 104.7C15.2 109.9 -11.1 106.2 -28.8 93.5C-46.5 80.8 -55.7 59.1 -74.1 37.7C-92.5 16.3 -120.1 -4.9 -117.4 -20.8C-114.8 -36.8 -81.8 -47.5 -57.2 -57.3C-32.6 -67.1 -16.3 -76.1 4.8 -81.8C25.9 -87.6 51.9 -90.1 65.3 -78.3" fill="#BB004B"></path></g></svg>