<svg id="visual" viewBox="0 0 960 300" width="960" height="300" xmlns="http://www.w3.org/2000/svg" xmlns:xlink="http://www.w3.org/1999/xlink" version="1.1"><rect x="0" y="0" width="960" height="300" fill="#FF0066"></rect><g transform="translate(461.7536129145143 156.17096224429446)"><path d="M63.7 -70.9C88 -55.6 116.9 -40.6 121.6 -20.5C126.3 -0.3 106.9 25.1 87.8 43.8C68.8 62.5 50.1 74.5 28.6 85.2C7.1 95.8 -17.3 105.2 -38.7 100.2C-60.1 95.1 -78.6 75.5 -83.9 54.3C-89.3 33 -81.6 10 -81.5 -18.5C-81.4 -47 -88.9 -80.9 -76.6 -98.4C-64.3 -115.9 -32.1 -117 -6.2 -109.6C19.7 -102.2 39.4 -86.3 63.7 -70.9" fill="#BB004B"></path></g></svg>