<svg id="visual" viewBox="0 0 960 200" width="960" height="200" xmlns="http://www.w3.org/2000/svg" xmlns:xlink="http://www.w3.org/1999/xlink" version="1.1"><rect x="0" y="0" width="960" height="200" fill="#f9fafb"></rect><path d="M0 93L17.8 93.3C35.7 93.7 71.3 94.3 106.8 100.2C142.3 106 177.7 117 213.2 121.8C248.7 126.7 284.3 125.3 320 120.5C355.7 115.7 391.3 107.3 426.8 105.8C462.3 104.3 497.7 109.7 533.2 110.5C568.7 111.3 604.3 107.7 640 103.7C675.7 99.7 711.3 95.3 746.8 91.2C782.3 87 817.7 83 853.2 84.3C888.7 85.7 924.3 92.3 942.2 95.7L960 99L960 201L942.2 201C924.3 201 888.7 201 853.2 201C817.7 201 782.3 201 746.8 201C711.3 201 675.7 201 640 201C604.3 201 568.7 201 533.2 201C497.7 201 462.3 201 426.8 201C391.3 201 355.7 201 320 201C284.3 201 248.7 201 213.2 201C177.7 201 142.3 201 106.8 201C71.3 201 35.7 201 17.8 201L0 201Z" fill="#04f7bc"></path><path d="M0 128L17.8 126.2C35.7 124.3 71.3 120.7 106.8 121.3C142.3 122 177.7 127 213.2 130.5C248.7 134 284.3 136 320 139.2C355.7 142.3 391.3 146.7 426.8 142.7C462.3 138.7 497.7 126.3 533.2 121.7C568.7 117 604.3 120 640 125.7C675.7 131.3 711.3 139.7 746.8 141.7C782.3 143.7 817.7 139.3 853.2 137.7C888.7 136 924.3 137 942.2 137.5L960 138L960 201L942.2 201C924.3 201 888.7 201 853.2 201C817.7 201 782.3 201 746.8 201C711.3 201 675.7 201 640 201C604.3 201 568.7 201 533.2 201C497.7 201 462.3 201 426.8 201C391.3 201 355.7 201 320 201C284.3 201 248.7 201 213.2 201C177.7 201 142.3 201 106.8 201C71.3 201 35.7 201 17.8 201L0 201Z" fill="#00afba"></path><path d="M0 154L17.8 152.2C35.7 150.3 71.3 146.7 106.8 149.3C142.3 152 177.7 161 213.2 158.8C248.7 156.7 284.3 143.3 320 136.7C355.7 130 391.3 130 426.8 130.5C462.3 131 497.7 132 533.2 136.3C568.7 140.7 604.3 148.3 640 153.8C675.7 159.3 711.3 162.7 746.8 161.3C782.3 160 817.7 154 853.2 150.5C888.7 147 924.3 146 942.2 145.5L960 145L960 201L942.2 201C924.3 201 888.7 201 853.2 201C817.7 201 782.3 201 746.8 201C711.3 201 675.7 201 640 201C604.3 201 568.7 201 533.2 201C497.7 201 462.3 201 426.8 201C391.3 201 355.7 201 320 201C284.3 201 248.7 201 213.2 201C177.7 201 142.3 201 106.8 201C71.3 201 35.7 201 17.8 201L0 201Z" fill="#216781"></path><path d="M0 186L17.8 182.8C35.7 179.7 71.3 173.3 106.8 173.5C142.3 173.7 177.7 180.3 213.2 183.2C248.7 186 284.3 185 320 184C355.7 183 391.3 182 426.8 178.3C462.3 174.7 497.7 168.3 533.2 164C568.7 159.7 604.3 157.3 640 160.7C675.7 164 711.3 173 746.8 174C782.3 175 817.7 168 853.2 168.3C888.7 168.7 924.3 176.3 942.2 180.2L960 184L960 201L942.2 201C924.3 201 888.7 201 853.2 201C817.7 201 782.3 201 746.8 201C711.3 201 675.7 201 640 201C604.3 201 568.7 201 533.2 201C497.7 201 462.3 201 426.8 201C391.3 201 355.7 201 320 201C284.3 201 248.7 201 213.2 201C177.7 201 142.3 201 106.8 201C71.3 201 35.7 201 17.8 201L0 201Z" fill="#1f2937"></path></svg>