<svg id="visual" viewBox="0 0 960 200" width="960" height="200" xmlns="http://www.w3.org/2000/svg" xmlns:xlink="http://www.w3.org/1999/xlink" version="1.1"><rect x="0" y="0" width="960" height="200" fill="#1f2937"></rect><path d="M0 148L26.7 140.5C53.3 133 106.7 118 160 113.7C213.3 109.3 266.7 115.7 320 118.5C373.3 121.3 426.7 120.7 480 117.2C533.3 113.7 586.7 107.3 640 106C693.3 104.7 746.7 108.3 800 101.8C853.3 95.3 906.7 78.7 933.3 70.3L960 62L960 0L933.3 0C906.7 0 853.3 0 800 0C746.7 0 693.3 0 640 0C586.7 0 533.3 0 480 0C426.7 0 373.3 0 320 0C266.7 0 213.3 0 160 0C106.7 0 53.3 0 26.7 0L0 0Z" fill="#fffbeb" stroke-linecap="round" stroke-linejoin="miter"></path></svg>