<svg id="visual" viewBox="0 0 960 300" width="960" height="300" xmlns="http://www.w3.org/2000/svg" xmlns:xlink="http://www.w3.org/1999/xlink" version="1.1"><rect x="0" y="0" width="960" height="300" fill="#202731"></rect><path d="M0 121L22.8 117.5C45.7 114 91.3 107 137 103.2C182.7 99.3 228.3 98.7 274 98.2C319.7 97.7 365.3 97.3 411.2 94.7C457 92 503 87 548.8 86.7C594.7 86.3 640.3 90.7 686 89.5C731.7 88.3 777.3 81.7 823 84.7C868.7 87.7 914.3 100.3 937.2 106.7L960 113L960 0L937.2 0C914.3 0 868.7 0 823 0C777.3 0 731.7 0 686 0C640.3 0 594.7 0 548.8 0C503 0 457 0 411.2 0C365.3 0 319.7 0 274 0C228.3 0 182.7 0 137 0C91.3 0 45.7 0 22.8 0L0 0Z" fill="#ffcdc9"></path><path d="M0 89L22.8 90.7C45.7 92.3 91.3 95.7 137 92.8C182.7 90 228.3 81 274 78.8C319.7 76.7 365.3 81.3 411.2 83.8C457 86.3 503 86.7 548.8 82.3C594.7 78 640.3 69 686 68.8C731.7 68.7 777.3 77.3 823 81.3C868.7 85.3 914.3 84.7 937.2 84.3L960 84L960 0L937.2 0C914.3 0 868.7 0 823 0C777.3 0 731.7 0 686 0C640.3 0 594.7 0 548.8 0C503 0 457 0 411.2 0C365.3 0 319.7 0 274 0C228.3 0 182.7 0 137 0C91.3 0 45.7 0 22.8 0L0 0Z" fill="#fcaba3"></path><path d="M0 55L22.8 53.3C45.7 51.7 91.3 48.3 137 50.5C182.7 52.7 228.3 60.3 274 61.3C319.7 62.3 365.3 56.7 411.2 53.2C457 49.7 503 48.3 548.8 52C594.7 55.7 640.3 64.3 686 67C731.7 69.7 777.3 66.3 823 64.7C868.7 63 914.3 63 937.2 63L960 63L960 0L937.2 0C914.3 0 868.7 0 823 0C777.3 0 731.7 0 686 0C640.3 0 594.7 0 548.8 0C503 0 457 0 411.2 0C365.3 0 319.7 0 274 0C228.3 0 182.7 0 137 0C91.3 0 45.7 0 22.8 0L0 0Z" fill="#f5897d"></path><path d="M0 32L22.8 34.3C45.7 36.7 91.3 41.3 137 43C182.7 44.7 228.3 43.3 274 43.2C319.7 43 365.3 44 411.2 45C457 46 503 47 548.8 45C594.7 43 640.3 38 686 39C731.7 40 777.3 47 823 51.2C868.7 55.3 914.3 56.7 937.2 57.3L960 58L960 0L937.2 0C914.3 0 868.7 0 823 0C777.3 0 731.7 0 686 0C640.3 0 594.7 0 548.8 0C503 0 457 0 411.2 0C365.3 0 319.7 0 274 0C228.3 0 182.7 0 137 0C91.3 0 45.7 0 22.8 0L0 0Z" fill="#eb6657"></path><path d="M0 18L22.8 19C45.7 20 91.3 22 137 21.7C182.7 21.3 228.3 18.7 274 16.8C319.7 15 365.3 14 411.2 16.2C457 18.3 503 23.7 548.8 26.7C594.7 29.7 640.3 30.3 686 29.5C731.7 28.7 777.3 26.3 823 23.3C868.7 20.3 914.3 16.7 937.2 14.8L960 13L960 0L937.2 0C914.3 0 868.7 0 823 0C777.3 0 731.7 0 686 0C640.3 0 594.7 0 548.8 0C503 0 457 0 411.2 0C365.3 0 319.7 0 274 0C228.3 0 182.7 0 137 0C91.3 0 45.7 0 22.8 0L0 0Z" fill="#dd3f31"></path></svg>