<svg id="visual" viewBox="0 0 960 200" width="960" height="200" xmlns="http://www.w3.org/2000/svg" xmlns:xlink="http://www.w3.org/1999/xlink" version="1.1"><rect x="0" y="0" width="960" height="200" fill="#1f2937"></rect><path d="M0 50L26.7 50C53.3 50 106.7 50 160 59.8C213.3 69.7 266.7 89.3 320 100.3C373.3 111.3 426.7 113.7 480 109.8C533.3 106 586.7 96 640 90.5C693.3 85 746.7 84 800 90.8C853.3 97.7 906.7 112.3 933.3 119.7L960 127L960 201L933.3 201C906.7 201 853.3 201 800 201C746.7 201 693.3 201 640 201C586.7 201 533.3 201 480 201C426.7 201 373.3 201 320 201C266.7 201 213.3 201 160 201C106.7 201 53.3 201 26.7 201L0 201Z" fill="#fffbeb" stroke-linecap="round" stroke-linejoin="miter"></path></svg>