<svg id="visual" viewBox="0 0 960 300" width="960" height="300" xmlns="http://www.w3.org/2000/svg" xmlns:xlink="http://www.w3.org/1999/xlink" version="1.1"><rect x="0" y="0" width="960" height="300" fill="#202731"></rect><path d="M0 170L22.8 168.3C45.7 166.7 91.3 163.3 137 160.3C182.7 157.3 228.3 154.7 274 153.2C319.7 151.7 365.3 151.3 411.2 153.3C457 155.3 503 159.7 548.8 164C594.7 168.3 640.3 172.7 686 172.2C731.7 171.7 777.3 166.3 823 164C868.7 161.7 914.3 162.3 937.2 162.7L960 163L960 0L937.2 0C914.3 0 868.7 0 823 0C777.3 0 731.7 0 686 0C640.3 0 594.7 0 548.8 0C503 0 457 0 411.2 0C365.3 0 319.7 0 274 0C228.3 0 182.7 0 137 0C91.3 0 45.7 0 22.8 0L0 0Z" fill="#fc6ba5"></path><path d="M0 136L22.8 130C45.7 124 91.3 112 137 105.5C182.7 99 228.3 98 274 103.8C319.7 109.7 365.3 122.3 411.2 133.7C457 145 503 155 548.8 152.5C594.7 150 640.3 135 686 134.5C731.7 134 777.3 148 823 146.7C868.7 145.3 914.3 128.7 937.2 120.3L960 112L960 0L937.2 0C914.3 0 868.7 0 823 0C777.3 0 731.7 0 686 0C640.3 0 594.7 0 548.8 0C503 0 457 0 411.2 0C365.3 0 319.7 0 274 0C228.3 0 182.7 0 137 0C91.3 0 45.7 0 22.8 0L0 0Z" fill="#fe5492"></path><path d="M0 98L22.8 93.3C45.7 88.7 91.3 79.3 137 84.2C182.7 89 228.3 108 274 115.8C319.7 123.7 365.3 120.3 411.2 114.5C457 108.7 503 100.3 548.8 93.8C594.7 87.3 640.3 82.7 686 83.8C731.7 85 777.3 92 823 97.2C868.7 102.3 914.3 105.7 937.2 107.3L960 109L960 0L937.2 0C914.3 0 868.7 0 823 0C777.3 0 731.7 0 686 0C640.3 0 594.7 0 548.8 0C503 0 457 0 411.2 0C365.3 0 319.7 0 274 0C228.3 0 182.7 0 137 0C91.3 0 45.7 0 22.8 0L0 0Z" fill="#ff387d"></path><path d="M0 37L22.8 43.8C45.7 50.7 91.3 64.3 137 71.2C182.7 78 228.3 78 274 74C319.7 70 365.3 62 411.2 59.2C457 56.3 503 58.7 548.8 61.7C594.7 64.7 640.3 68.3 686 68.7C731.7 69 777.3 66 823 64C868.7 62 914.3 61 937.2 60.5L960 60L960 0L937.2 0C914.3 0 868.7 0 823 0C777.3 0 731.7 0 686 0C640.3 0 594.7 0 548.8 0C503 0 457 0 411.2 0C365.3 0 319.7 0 274 0C228.3 0 182.7 0 137 0C91.3 0 45.7 0 22.8 0L0 0Z" fill="#ff0066"></path></svg>